<svg xmlns="http://www.w3.org/2000/svg" width="292" height="140" viewBox="-90 -90 2360 1131">
  <defs>
    <linearGradient id="grad" x1="0%" y1="0%" x2="100%" y2="100%">
      <stop offset="0%" stop-color="#5B8DEF"/>
      <stop offset="50%" stop-color="#8E7BEF"/>
      <stop offset="100%" stop-color="#C56FE0"/>
    </linearGradient>
  </defs>
  <path transform="translate(0,836) scale(1,-1)" d="M567 715H690Q717 752 728.0 762.5Q739 773 746.5 773.0Q754 773 807.0 738.0Q860 703 860.0 691.5Q860 680 835.0 680.0Q810 680 782.5 663.5Q755 647 685 592H808Q829 631 839.0 646.0Q849 661 856.5 661.0Q864 661 895.5 637.0Q927 613 942.0 600.0Q957 587 957 576Q957 559 933 559H618Q641 551 666.0 539.5Q691 528 694.0 524.0Q697 520 697 516Q697 502 677 501Q660 500 633 483Q701 484 729.5 465.0Q758 446 758 416Q758 393 732 376H832L859 421Q847 418 837 418Q798 418 786.5 458.0Q775 498 761.5 516.5Q748 535 730.5 542.0Q713 549 713.0 551.5Q713 554 725 554Q783 554 835.5 530.0Q888 506 888 468Q888 453 880 439Q903 427 931.0 402.5Q959 378 965.5 369.5Q972 361 972 355Q972 343 954 343H849Q890 315 905.0 302.0Q920 289 920.0 277.0Q920 265 900 265H861Q927 215 927 197Q927 186 909 186H563Q543 186 527 175L501 222Q525 219 551 219H791Q801 239 819 265H564Q544 265 528 254L503 298Q494 193 472.0 128.0Q450 63 410.5 13.0Q371 -37 313.5 -76.0Q256 -115 246 -115Q244 -115 244.0 -112.5Q244 -110 253 -102Q332 -34 362.5 46.0Q393 126 401.5 225.0Q410 324 408 570Q374 546 353 535V161Q353 114 354 96L355 62Q355 55 352.0 51.0Q349 47 331.0 40.0Q313 33 292.5 29.0Q272 25 258 25Q249 25 249 42V65H164V25Q164 14 157.0 9.0Q150 4 117.5 -4.0Q85 -12 65 -12Q56 -12 56 -4L58 33Q60 70 60 128V653Q60 714 58 757Q132 735 173 714H237Q251 743 258.0 753.0Q265 763 274.5 763.0Q284 763 324.0 734.0Q364 705 372.0 696.5Q380 688 380 681Q380 669 353 661V562Q401 614 445.0 690.5Q489 767 509 836Q564 825 607.0 812.5Q650 800 657.0 795.0Q664 790 664 785Q664 775 645.5 771.0Q627 767 612.5 757.5Q598 748 567 715ZM645 592Q664 626 687 682H536Q491 637 461 612Q481 612 528 592ZM249 503V681H178Q174 671 164 668V503ZM590 559H519Q515 545 515 524L513 456Q553 492 590 559ZM249 305V470H164V305ZM512 425 510 376H667Q655 386 653 404Q649 456 611 470Q560 443 512 425ZM508 343Q506 315 504 301Q526 298 552 298H785Q796 325 810 343ZM249 98V272H164V98ZM616 139H769Q788 180 800.0 180.0Q812 180 853.5 157.0Q895 134 909.5 124.0Q924 114 924.0 103.5Q924 93 900 83V-19Q900 -36 901 -49L903 -71Q903 -84 868.5 -94.0Q834 -104 792 -104Q784 -104 781.5 -101.0Q779 -98 779 -89V-45H608V-69Q608 -75 605.5 -78.0Q603 -81 587.0 -87.5Q571 -94 550.0 -98.0Q529 -102 509 -102Q502 -102 503 -92Q505 -69 505 -18V91Q505 133 502 176Q557 165 616 139ZM779 -12V106H629Q623 99 608 92V-12Z" fill="url(#grad)"/>
  <path transform="translate(1180,836) scale(1,-1)" d="M368 549H109Q89 549 73 538L47 585Q71 582 97 582H373Q383 648 384 718H221Q200 718 182 706L156 754Q180 751 206 751H661Q669 766 680.0 783.0Q691 800 695.0 804.0Q699 808 705 808Q720 808 781.5 772.5Q843 737 843 721Q843 708 805 694V582H825Q855 637 861.0 646.0Q867 655 873 655Q884 655 934.0 616.5Q984 578 984.0 563.5Q984 549 964 549H805V423L806 370Q806 363 802.5 359.0Q799 355 782.5 348.5Q766 342 737.5 338.0Q709 334 692 334Q682 334 682 351V392H433Q400 335 354 289Q392 276 430 259H704Q729 310 745 310Q756 310 807.5 284.0Q859 258 871.0 248.0Q883 238 883 229Q883 213 850 205V3Q850 -14 851 -27L853 -49Q853 -54 850.0 -57.5Q847 -61 822.0 -70.5Q797 -80 771.5 -82.5Q746 -85 737.0 -85.0Q728 -85 725.5 -82.0Q723 -79 723 -70V-8H423V-62Q423 -70 414.0 -75.5Q405 -81 373.0 -88.0Q341 -95 313 -95Q306 -95 307 -85Q309 -62 309 -11V247Q240 192 145.0 146.5Q50 101 38 101Q36 101 36 102Q36 106 51 116Q158 193 219.0 258.5Q280 324 315 392H204Q183 392 165 380L139 428Q163 425 189 425H330Q356 486 368 549ZM501 582H682V718H536Q518 702 515 677Q511 632 501 582ZM682 549H494Q475 477 450 425H682ZM723 25V226H448Q440 214 423 207V25Z" fill="url(#grad)"/>
</svg>
